<svg width="167" height="64" viewBox="0 0 167 64" fill="none" xmlns="http://www.w3.org/2000/svg">
<path d="M0.5625 64V-1.90735e-06H43.6875V11.1562H14.0938V26.4062H41.4688V37.5625H14.0938V52.8437H43.8125V64H0.5625ZM52.0078 11.1562V-1.90735e-06H104.57V11.1562H84.9766V64H71.6016V11.1562H52.0078ZM166.758 -1.90735e-06V64H155.07L127.227 23.7187H126.758V64H113.227V-1.90735e-06H125.102L152.727 40.25H153.289V-1.90735e-06H166.758Z" fill="white"/>
<path d="M0.5625 64H-2.4375V67H0.5625V64ZM0.5625 -1.90735e-06V-3H-2.4375V-1.90735e-06H0.5625ZM43.6875 -1.90735e-06H46.6875V-3H43.6875V-1.90735e-06ZM43.6875 11.1562V14.1562H46.6875V11.1562H43.6875ZM14.0938 11.1562V8.15625H11.0938V11.1562H14.0938ZM14.0938 26.4062H11.0938V29.4062H14.0938V26.4062ZM41.4688 26.4062H44.4688V23.4062H41.4688V26.4062ZM41.4688 37.5625V40.5625H44.4688V37.5625H41.4688ZM14.0938 37.5625V34.5625H11.0938V37.5625H14.0938ZM14.0938 52.8437H11.0938V55.8437H14.0938V52.8437ZM43.8125 52.8437H46.8125V49.8437H43.8125V52.8437ZM43.8125 64V67H46.8125V64H43.8125ZM3.5625 64V-1.90735e-06H-2.4375V64H3.5625ZM0.5625 3H43.6875V-3H0.5625V3ZM40.6875 -1.90735e-06V11.1562H46.6875V-1.90735e-06H40.6875ZM43.6875 8.15625H14.0938V14.1562H43.6875V8.15625ZM11.0938 11.1562V26.4062H17.0938V11.1562H11.0938ZM14.0938 29.4062H41.4688V23.4062H14.0938V29.4062ZM38.4688 26.4062V37.5625H44.4688V26.4062H38.4688ZM41.4688 34.5625H14.0938V40.5625H41.4688V34.5625ZM11.0938 37.5625V52.8437H17.0938V37.5625H11.0938ZM14.0938 55.8437H43.8125V49.8437H14.0938V55.8437ZM40.8125 52.8437V64H46.8125V52.8437H40.8125ZM43.8125 61H0.5625V67H43.8125V61ZM52.0078 11.1562H49.0078V14.1562H52.0078V11.1562ZM52.0078 -1.90735e-06V-3H49.0078V-1.90735e-06H52.0078ZM104.57 -1.90735e-06H107.57V-3H104.57V-1.90735e-06ZM104.57 11.1562V14.1562H107.57V11.1562H104.57ZM84.9766 11.1562V8.15625H81.9766V11.1562H84.9766ZM84.9766 64V67H87.9766V64H84.9766ZM71.6016 64H68.6016V67H71.6016V64ZM71.6016 11.1562H74.6016V8.15625H71.6016V11.1562ZM55.0078 11.1562V-1.90735e-06H49.0078V11.1562H55.0078ZM52.0078 3H104.57V-3H52.0078V3ZM101.57 -1.90735e-06V11.1562H107.57V-1.90735e-06H101.57ZM104.57 8.15625H84.9766V14.1562H104.57V8.15625ZM81.9766 11.1562V64H87.9766V11.1562H81.9766ZM84.9766 61H71.6016V67H84.9766V61ZM74.6016 64V11.1562H68.6016V64H74.6016ZM71.6016 8.15625H52.0078V14.1562H71.6016V8.15625ZM166.758 -1.90735e-06H169.758V-3H166.758V-1.90735e-06ZM166.758 64V67H169.758V64H166.758ZM155.07 64L152.602 65.7058L153.497 67H155.07V64ZM127.227 23.7187L129.694 22.0129L128.8 20.7187H127.227V23.7187ZM126.758 23.7187V20.7187H123.758V23.7187H126.758ZM126.758 64V67H129.758V64H126.758ZM113.227 64H110.227V67H113.227V64ZM113.227 -1.90735e-06V-3H110.227V-1.90735e-06H113.227ZM125.102 -1.90735e-06L127.575 -1.69763L126.681 -3H125.102V-1.90735e-06ZM152.727 40.25L150.253 41.9476L151.147 43.25H152.727V40.25ZM153.289 40.25V43.25H156.289V40.25H153.289ZM153.289 -1.90735e-06V-3H150.289V-1.90735e-06H153.289ZM163.758 -1.90735e-06V64H169.758V-1.90735e-06H163.758ZM166.758 61H155.07V67H166.758V61ZM157.538 62.2942L129.694 22.0129L124.759 25.4246L152.602 65.7058L157.538 62.2942ZM127.227 20.7187H126.758V26.7187H127.227V20.7187ZM123.758 23.7187V64H129.758V23.7187H123.758ZM126.758 61H113.227V67H126.758V61ZM116.227 64V-1.90735e-06H110.227V64H116.227ZM113.227 3H125.102V-3H113.227V3ZM122.628 1.69763L150.253 41.9476L155.2 38.5524L127.575 -1.69763L122.628 1.69763ZM152.727 43.25H153.289V37.25H152.727V43.25ZM156.289 40.25V-1.90735e-06H150.289V40.25H156.289ZM153.289 3H166.758V-3H153.289V3Z" fill="#1B1A58"/>
</svg>
