<svg width="180" height="180" viewBox="0 0 180 180" fill="none" xmlns="http://www.w3.org/2000/svg">
<circle cx="90" cy="90" r="90" fill="white"/>
<path d="M42.125 129V65H59.5V90H82.5V65H99.875V129H82.5V104H59.5V129H42.125ZM134.5 65H151.625V108.875C151.604 113.042 150.552 116.708 148.469 119.875C146.406 123.021 143.552 125.479 139.906 127.25C136.281 129 132.104 129.875 127.375 129.875C123.271 129.875 119.521 129.167 116.125 127.75C112.729 126.312 110.021 124.062 108 121C105.979 117.917 104.979 113.917 105 109H122.375C122.438 110.604 122.708 111.958 123.188 113.063C123.688 114.167 124.375 115 125.25 115.562C126.146 116.104 127.229 116.375 128.5 116.375C129.792 116.375 130.875 116.094 131.75 115.531C132.646 114.969 133.323 114.135 133.781 113.031C134.24 111.906 134.479 110.521 134.5 108.875V65Z" fill="#D2CFCF"/>
<path d="M29.125 115V51H46.5V76H69.5V51H86.875V115H69.5V90H46.5V115H29.125ZM121.5 51H138.625V94.875C138.604 99.0417 137.552 102.708 135.469 105.875C133.406 109.021 130.552 111.479 126.906 113.25C123.281 115 119.104 115.875 114.375 115.875C110.271 115.875 106.521 115.167 103.125 113.75C99.7292 112.312 97.0208 110.062 95 107C92.9792 103.917 91.9792 99.9167 92 95H109.375C109.438 96.6042 109.708 97.9583 110.188 99.0625C110.688 100.167 111.375 101 112.25 101.562C113.146 102.104 114.229 102.375 115.5 102.375C116.792 102.375 117.875 102.094 118.75 101.531C119.646 100.969 120.323 100.135 120.781 99.0312C121.24 97.9062 121.479 96.5208 121.5 94.875V51Z" fill="black"/>
</svg>
