<svg width="40" height="40" viewBox="0 0 40 40" fill="none" xmlns="http://www.w3.org/2000/svg">
<path d="M20.0001 16.6666L32.5001 12.5M20.0001 16.6666L7.50008 12.5M20.0001 16.6666V34.1666M21.1095 7.0582L31.9428 10.8817C33.2755 11.3521 34.1667 12.6118 34.1667 14.025V27.0513C34.1667 28.3425 33.421 29.5176 32.2527 30.0674L21.4194 35.1654C20.5205 35.5884 19.4797 35.5884 18.5808 35.1654L7.74742 30.0674C6.57912 29.5176 5.83341 28.3425 5.83341 27.0513V14.025C5.83341 12.6118 6.72464 11.3521 8.05735 10.8817L18.8907 7.0582C19.6086 6.80482 20.3916 6.80482 21.1095 7.0582Z" stroke="black" stroke-width="2" stroke-linecap="round"/>
</svg>
