<?xml version="1.0" standalone="no"?>
<!DOCTYPE svg PUBLIC "-//W3C//DTD SVG 20010904//EN"
 "http://www.w3.org/TR/2001/REC-SVG-20010904/DTD/svg10.dtd">
<svg version="1.0" xmlns="http://www.w3.org/2000/svg"
 width="500.000000pt" height="500.000000pt" viewBox="0 0 500.000000 500.000000"
 preserveAspectRatio="xMidYMid meet">

<g transform="translate(0.000000,500.000000) scale(0.100000,-0.100000)"
fill="#000000" stroke="none">
<path d="M1393 4660 c-58 -35 -81 -118 -49 -178 8 -15 220 -232 470 -482 251
-250 456 -458 456 -462 0 -4 -249 -9 -552 -10 -491 -3 -560 -6 -613 -21 -312
-91 -550 -361 -595 -673 -8 -56 -10 -339 -8 -964 4 -995 -1 -922 83 -1095 122
-251 372 -428 643 -455 48 -5 650 -7 1337 -6 1235 3 1251 3 1320 24 246 73
429 226 535 447 78 163 74 96 78 1085 2 624 0 908 -8 964 -48 335 -318 619
-648 682 -58 11 -189 14 -593 14 -285 0 -519 3 -519 8 0 4 205 212 456 462
250 250 462 467 470 482 32 62 6 151 -55 183 -35 18 -83 20 -114 4 -12 -6
-239 -228 -504 -493 l-483 -481 -482 481 c-266 265 -493 487 -505 493 -33 17
-84 13 -120 -9z m2452 -1415 c188 -48 321 -181 370 -370 22 -87 22 -1807 0
-1903 -41 -174 -168 -311 -339 -365 l-71 -22 -1305 0 -1305 0 -71 22 c-171 54
-298 191 -339 365 -12 53 -15 203 -15 950 0 609 3 904 11 940 38 181 189 339
365 382 92 22 2613 23 2699 1z"/>
</g>
</svg>
