<svg width="32" height="32" viewBox="0 0 32 32" fill="none" xmlns="http://www.w3.org/2000/svg">
<path fill-rule="evenodd" clip-rule="evenodd" d="M4.00002 8.00004C3.26364 8.00004 2.66669 8.597 2.66669 9.33338C2.66669 10.0698 3.26364 10.6667 4.00002 10.6667H24.7867L21.64 13.5867C21.3876 13.8371 21.2456 14.1779 21.2456 14.5334C21.2456 14.8889 21.3876 15.2297 21.64 15.48C21.8904 15.7325 22.2312 15.8744 22.5867 15.8744C22.9422 15.8744 23.283 15.7325 23.5334 15.48L28.8667 10.1467C28.9784 10.0327 29.0647 9.89639 29.12 9.74671C29.1723 9.61514 29.1994 9.47494 29.2 9.33338V9.25338C29.214 9.1427 29.214 9.03072 29.2 8.92004C29.2075 8.87591 29.2075 8.83084 29.2 8.78671C29.1401 8.63933 29.0543 8.50386 28.9467 8.38671L23.6134 3.05338C23.0905 2.53055 22.2428 2.53055 21.72 3.05338C21.1972 3.57621 21.1972 4.42388 21.72 4.94671L24.7867 8.00004H4.00002ZM7.21335 21.3334H28C28.7364 21.3334 29.3334 21.9303 29.3334 22.6667C29.3334 23.4031 28.7364 24 28 24H7.21335L10.2934 26.92C10.5458 27.1704 10.6878 27.5112 10.6878 27.8667C10.6878 28.2222 10.5458 28.563 10.2934 28.8134C10.043 29.0658 9.7022 29.2078 9.34669 29.2078C8.99117 29.2078 8.65038 29.0658 8.40002 28.8134L3.06669 23.48C2.95502 23.366 2.86869 23.2297 2.81335 23.08C2.76111 22.9485 2.73397 22.8083 2.73335 22.6667V22.5867C2.74126 22.4732 2.76367 22.3612 2.80002 22.2534C2.79256 22.2092 2.79256 22.1642 2.80002 22.12C2.85993 21.9727 2.94572 21.8372 3.05335 21.72L8.38669 16.3867C8.90952 15.8639 9.75719 15.8639 10.28 16.3867C10.8028 16.9095 10.8028 17.7572 10.28 18.28L7.21335 21.3334Z" fill="#231F20"/>
</svg>
