<svg width="1em" height="1em" viewBox="0 0 48 48" fill="none" xmlns="http://www.w3.org/2000/svg">
<path fill-rule="evenodd" clip-rule="evenodd" d="M34 22C34 27.5228 29.5228 32 24 32C18.4772 32 14 27.5228 14 22V14C14 8.47715 18.4772 4 24 4C29.5228 4 34 8.47715 34 14V22ZM24 8C20.6863 8 18 10.6863 18 14V22C18 25.3137 20.6863 28 24 28C27.3137 28 30 25.3137 30 22V14C30 10.6863 27.3137 8 24 8ZM32 42C32 43.1046 31.1046 44 30 44H18C16.8954 44 16 43.1046 16 42C16 40.8954 16.8954 40 18 40H30C31.1046 40 32 40.8954 32 42ZM24 38C32.8366 38 40 30.8366 40 22C40 20.8954 39.1046 20 38 20C36.8954 20 36 20.8954 36 22C36 28.6274 30.6274 34 24 34C17.3726 34 12 28.6274 12 22C12 20.8954 11.1046 20 10 20C8.89543 20 8 20.8954 8 22C8 30.8366 15.1634 38 24 38Z" fill="#231F20"/>
</svg>
