<svg width="173" height="64" viewBox="0 0 173 64" fill="none" xmlns="http://www.w3.org/2000/svg">
<path d="M0.5625 64V-1.90735e-06H14.0938V28.2187H14.9375L37.9688 -1.90735e-06H54.1875L30.4375 28.6562L54.4688 64H38.2813L20.75 37.6875L14.0938 45.8125V64H0.5625ZM61.2344 64V-1.90735e-06H86.8594C91.5677 -1.90735e-06 95.4948 0.697915 98.6406 2.09375C101.786 3.48958 104.151 5.42708 105.734 7.90625C107.318 10.3646 108.109 13.1979 108.109 16.4063C108.109 18.9062 107.609 21.1042 106.609 23C105.609 24.875 104.234 26.4167 102.484 27.625C100.755 28.8125 98.776 29.6562 96.5469 30.1562V30.7812C98.9844 30.8854 101.266 31.5729 103.391 32.8437C105.536 34.1146 107.276 35.8958 108.609 38.1875C109.943 40.4583 110.609 43.1667 110.609 46.3125C110.609 49.7083 109.766 52.7396 108.078 55.4062C106.411 58.0521 103.943 60.1458 100.672 61.6875C97.401 63.2292 93.3698 64 88.5781 64H61.2344ZM74.7656 52.9375H85.7969C89.5677 52.9375 92.3177 52.2187 94.0469 50.7812C95.776 49.3229 96.6406 47.3854 96.6406 44.9687C96.6406 43.1979 96.2135 41.6354 95.3594 40.2812C94.5052 38.9271 93.2865 37.8646 91.7031 37.0937C90.1406 36.3229 88.276 35.9375 86.1094 35.9375H74.7656V52.9375ZM74.7656 26.7812H84.7969C86.651 26.7812 88.2969 26.4583 89.7344 25.8125C91.1927 25.1458 92.3385 24.2083 93.1719 23C94.026 21.7917 94.4531 20.3438 94.4531 18.6563C94.4531 16.3438 93.6302 14.4792 91.9844 13.0625C90.3594 11.6458 88.0469 10.9375 85.0469 10.9375H74.7656V26.7812ZM172.945 -1.90735e-06V64H161.258L133.414 23.7187H132.945V64H119.414V-1.90735e-06H131.289L158.914 40.25H159.477V-1.90735e-06H172.945Z" fill="#E8343D"/>
</svg>
