<svg width="262" height="243" viewBox="0 0 262 243" fill="none" xmlns="http://www.w3.org/2000/svg">
<path d="M18.625 58.25V86H5.3125V38H18V46.4688H18.5625C19.625 43.6771 21.4063 41.4687 23.9063 39.8437C26.4062 38.1979 29.4375 37.375 33 37.375C36.3333 37.375 39.2396 38.1042 41.7188 39.5625C44.1979 41.0208 46.125 43.1042 47.5 45.8125C48.875 48.5 49.5625 51.7083 49.5625 55.4375V86H36.25V57.8125C36.2708 54.875 35.5208 52.5833 34 50.9375C32.4792 49.2708 30.3854 48.4375 27.7188 48.4375C25.9271 48.4375 24.3438 48.8229 22.9688 49.5937C21.6146 50.3646 20.5521 51.4896 19.7813 52.9687C19.0313 54.4271 18.6458 56.1875 18.625 58.25ZM81.9297 86.9375C76.9922 86.9375 72.7422 85.9375 69.1797 83.9375C65.638 81.9167 62.9089 79.0625 60.9922 75.375C59.0755 71.6667 58.1172 67.2812 58.1172 62.2187C58.1172 57.2812 59.0755 52.9479 60.9922 49.2188C62.9089 45.4896 65.6068 42.5833 69.0859 40.5C72.5859 38.4167 76.6901 37.375 81.3984 37.375C84.5651 37.375 87.513 37.8854 90.2422 38.9062C92.9922 39.9062 95.388 41.4167 97.4297 43.4375C99.4922 45.4583 101.096 48 102.242 51.0625C103.388 54.1042 103.961 57.6667 103.961 61.75V65.4062H63.4297V57.1562H91.4297C91.4297 55.2396 91.013 53.5417 90.1797 52.0625C89.3464 50.5833 88.1901 49.4271 86.7109 48.5937C85.2526 47.7396 83.5547 47.3125 81.6172 47.3125C79.5964 47.3125 77.8047 47.7812 76.2422 48.7187C74.7005 49.6354 73.4922 50.875 72.6172 52.4375C71.7422 53.9792 71.2943 55.6979 71.2734 57.5937V65.4375C71.2734 67.8125 71.7109 69.8646 72.5859 71.5937C73.4818 73.3229 74.7422 74.6562 76.3672 75.5937C77.9922 76.5312 79.9193 77 82.1484 77C83.6276 77 84.9818 76.7917 86.2109 76.375C87.4401 75.9583 88.4922 75.3333 89.3672 74.5C90.2422 73.6667 90.9089 72.6458 91.3672 71.4375L103.68 72.25C103.055 75.2083 101.773 77.7917 99.8359 80C97.9193 82.1875 95.4401 83.8958 92.3984 85.125C89.3776 86.3333 85.888 86.9375 81.9297 86.9375ZM121.773 86L108.711 38H122.18L129.617 70.25H130.055L137.805 38H151.023L158.898 70.0625H159.305L166.617 38H180.055L167.023 86H152.93L144.68 55.8125H144.086L135.836 86H121.773ZM227.094 51.6875L214.906 52.4375C214.698 51.3958 214.25 50.4583 213.563 49.625C212.875 48.7708 211.969 48.0937 210.844 47.5937C209.74 47.0729 208.417 46.8125 206.875 46.8125C204.813 46.8125 203.073 47.25 201.656 48.125C200.24 48.9792 199.531 50.125 199.531 51.5625C199.531 52.7083 199.99 53.6771 200.906 54.4688C201.823 55.2604 203.396 55.8958 205.625 56.375L214.313 58.125C218.979 59.0833 222.458 60.625 224.75 62.75C227.042 64.875 228.188 67.6667 228.188 71.125C228.188 74.2708 227.26 77.0312 225.406 79.4063C223.573 81.7812 221.052 83.6354 217.844 84.9688C214.656 86.2813 210.979 86.9375 206.813 86.9375C200.458 86.9375 195.396 85.6146 191.625 82.9687C187.875 80.3021 185.677 76.6771 185.031 72.0937L198.125 71.4062C198.521 73.3437 199.479 74.8229 201 75.8437C202.521 76.8437 204.469 77.3438 206.844 77.3438C209.177 77.3438 211.052 76.8958 212.469 76C213.906 75.0833 214.635 73.9062 214.656 72.4688C214.635 71.2604 214.125 70.2708 213.125 69.5C212.125 68.7083 210.583 68.1042 208.5 67.6875L200.188 66.0312C195.5 65.0937 192.01 63.4687 189.719 61.1562C187.448 58.8437 186.312 55.8958 186.312 52.3125C186.312 49.2292 187.146 46.5729 188.813 44.3437C190.5 42.1146 192.865 40.3958 195.906 39.1875C198.969 37.9792 202.552 37.375 206.656 37.375C212.719 37.375 217.49 38.6562 220.969 41.2187C224.469 43.7812 226.51 47.2708 227.094 51.6875Z" fill="black"/>
<path d="M19.625 120.25V148H6.3125V100H19V108.469H19.5625C20.625 105.677 22.4063 103.469 24.9063 101.844C27.4062 100.198 30.4375 99.375 34 99.375C37.3333 99.375 40.2396 100.104 42.7188 101.562C45.1979 103.021 47.125 105.104 48.5 107.812C49.875 110.5 50.5625 113.708 50.5625 117.437V148H37.25V119.812C37.2708 116.875 36.5208 114.583 35 112.938C33.4792 111.271 31.3854 110.437 28.7188 110.437C26.9271 110.437 25.3438 110.823 23.9688 111.594C22.6146 112.365 21.5521 113.49 20.7813 114.969C20.0313 116.427 19.6458 118.188 19.625 120.25ZM82.7422 148.938C77.888 148.938 73.6901 147.906 70.1484 145.844C66.6276 143.76 63.9089 140.865 61.9922 137.156C60.0755 133.427 59.1172 129.104 59.1172 124.187C59.1172 119.229 60.0755 114.896 61.9922 111.187C63.9089 107.458 66.6276 104.562 70.1484 102.5C73.6901 100.417 77.888 99.375 82.7422 99.375C87.5964 99.375 91.7839 100.417 95.3047 102.5C98.8464 104.562 101.576 107.458 103.492 111.187C105.409 114.896 106.367 119.229 106.367 124.187C106.367 129.104 105.409 133.427 103.492 137.156C101.576 140.865 98.8464 143.76 95.3047 145.844C91.7839 147.906 87.5964 148.938 82.7422 148.938ZM82.8047 138.625C85.013 138.625 86.8568 138 88.3359 136.75C89.8151 135.479 90.9297 133.75 91.6797 131.562C92.4505 129.375 92.8359 126.885 92.8359 124.094C92.8359 121.302 92.4505 118.813 91.6797 116.625C90.9297 114.437 89.8151 112.708 88.3359 111.437C86.8568 110.167 85.013 109.531 82.8047 109.531C80.5755 109.531 78.7005 110.167 77.1797 111.437C75.6797 112.708 74.5443 114.437 73.7734 116.625C73.0234 118.813 72.6484 121.302 72.6484 124.094C72.6484 126.885 73.0234 129.375 73.7734 131.562C74.5443 133.75 75.6797 135.479 77.1797 136.75C78.7005 138 80.5755 138.625 82.8047 138.625ZM123.289 148L110.227 100H123.695L131.133 132.25H131.57L139.32 100H152.539L160.414 132.063H160.82L168.133 100H181.57L168.539 148H154.445L146.195 117.812H145.602L137.352 148H123.289Z" fill="black"/>
<path d="M6.3125 222V174H19.625V222H6.3125ZM13 167.812C11.0208 167.812 9.32292 167.156 7.90625 165.844C6.51042 164.51 5.8125 162.917 5.8125 161.062C5.8125 159.229 6.51042 157.656 7.90625 156.344C9.32292 155.01 11.0208 154.344 13 154.344C14.9792 154.344 16.6667 155.01 18.0625 156.344C19.4792 157.656 20.1875 159.229 20.1875 161.062C20.1875 162.917 19.4792 164.51 18.0625 165.844C16.6667 167.156 14.9792 167.812 13 167.812ZM43.6016 194.25V222H30.2891V174H42.9766V182.469H43.5391C44.6016 179.677 46.3828 177.469 48.8828 175.844C51.3828 174.198 54.4141 173.375 57.9766 173.375C61.3099 173.375 64.2161 174.104 66.6953 175.562C69.1745 177.021 71.1016 179.104 72.4766 181.812C73.8516 184.5 74.5391 187.708 74.5391 191.437V222H61.2266V193.812C61.2474 190.875 60.4974 188.583 58.9766 186.938C57.4557 185.271 55.362 184.437 52.6953 184.437C50.9036 184.437 49.3203 184.823 47.9453 185.594C46.5911 186.365 45.5286 187.49 44.7578 188.969C44.0078 190.427 43.6224 192.188 43.6016 194.25ZM124.969 187.687L112.781 188.437C112.573 187.396 112.125 186.458 111.438 185.625C110.75 184.771 109.844 184.094 108.719 183.594C107.615 183.073 106.292 182.812 104.75 182.812C102.688 182.812 100.948 183.25 99.5313 184.125C98.1146 184.979 97.4063 186.125 97.4063 187.562C97.4063 188.708 97.8646 189.677 98.7813 190.469C99.6979 191.26 101.271 191.896 103.5 192.375L112.188 194.125C116.854 195.083 120.333 196.625 122.625 198.75C124.917 200.875 126.063 203.667 126.063 207.125C126.063 210.271 125.135 213.031 123.281 215.406C121.448 217.781 118.927 219.635 115.719 220.969C112.531 222.281 108.854 222.938 104.688 222.938C98.3333 222.938 93.2708 221.615 89.5 218.969C85.75 216.302 83.5521 212.677 82.9063 208.094L96 207.406C96.3958 209.344 97.3542 210.823 98.875 211.844C100.396 212.844 102.344 213.344 104.719 213.344C107.052 213.344 108.927 212.896 110.344 212C111.781 211.083 112.51 209.906 112.531 208.469C112.51 207.26 112 206.271 111 205.5C110 204.708 108.458 204.104 106.375 203.687L98.0625 202.031C93.375 201.094 89.8854 199.469 87.5938 197.156C85.3229 194.844 84.1875 191.896 84.1875 188.312C84.1875 185.229 85.0208 182.573 86.6875 180.344C88.375 178.115 90.7396 176.396 93.7813 175.187C96.8438 173.979 100.427 173.375 104.531 173.375C110.594 173.375 115.365 174.656 118.844 177.219C122.344 179.781 124.385 183.271 124.969 187.687ZM134.445 222V174H147.758V222H134.445ZM141.133 167.812C139.154 167.812 137.456 167.156 136.039 165.844C134.643 164.51 133.945 162.917 133.945 161.062C133.945 159.229 134.643 157.656 136.039 156.344C137.456 155.01 139.154 154.344 141.133 154.344C143.112 154.344 144.799 155.01 146.195 156.344C147.612 157.656 148.32 159.229 148.32 161.062C148.32 162.917 147.612 164.51 146.195 165.844C144.799 167.156 143.112 167.812 141.133 167.812ZM176.109 222.781C172.464 222.781 169.161 221.844 166.203 219.969C163.266 218.073 160.932 215.292 159.203 211.625C157.495 207.937 156.641 203.417 156.641 198.062C156.641 192.562 157.526 187.99 159.297 184.344C161.068 180.677 163.422 177.937 166.359 176.125C169.318 174.292 172.557 173.375 176.078 173.375C178.766 173.375 181.005 173.833 182.797 174.75C184.609 175.646 186.068 176.771 187.172 178.125C188.297 179.458 189.151 180.771 189.734 182.062H190.141V158H203.422V222H190.297V214.312H189.734C189.109 215.646 188.224 216.969 187.078 218.281C185.953 219.573 184.484 220.646 182.672 221.5C180.88 222.354 178.693 222.781 176.109 222.781ZM180.328 212.187C182.474 212.187 184.286 211.604 185.766 210.437C187.266 209.25 188.411 207.594 189.203 205.469C190.016 203.344 190.422 200.854 190.422 198C190.422 195.146 190.026 192.667 189.234 190.562C188.443 188.458 187.297 186.833 185.797 185.687C184.297 184.542 182.474 183.969 180.328 183.969C178.141 183.969 176.297 184.562 174.797 185.75C173.297 186.937 172.161 188.583 171.391 190.687C170.62 192.792 170.234 195.229 170.234 198C170.234 200.792 170.62 203.26 171.391 205.406C172.182 207.531 173.318 209.198 174.797 210.406C176.297 211.594 178.141 212.187 180.328 212.187ZM236.242 222.938C231.305 222.938 227.055 221.938 223.492 219.938C219.951 217.917 217.221 215.062 215.305 211.375C213.388 207.667 212.43 203.281 212.43 198.219C212.43 193.281 213.388 188.948 215.305 185.219C217.221 181.49 219.919 178.583 223.398 176.5C226.898 174.417 231.003 173.375 235.711 173.375C238.878 173.375 241.826 173.885 244.555 174.906C247.305 175.906 249.701 177.417 251.742 179.437C253.805 181.458 255.409 184 256.555 187.062C257.701 190.104 258.273 193.667 258.273 197.75V201.406H217.742V193.156H245.742C245.742 191.24 245.326 189.542 244.492 188.063C243.659 186.583 242.503 185.427 241.023 184.594C239.565 183.74 237.867 183.312 235.93 183.312C233.909 183.312 232.117 183.781 230.555 184.719C229.013 185.635 227.805 186.875 226.93 188.437C226.055 189.979 225.607 191.698 225.586 193.594V201.437C225.586 203.812 226.023 205.865 226.898 207.594C227.794 209.323 229.055 210.656 230.68 211.594C232.305 212.531 234.232 213 236.461 213C237.94 213 239.294 212.792 240.523 212.375C241.753 211.958 242.805 211.333 243.68 210.5C244.555 209.667 245.221 208.646 245.68 207.438L257.992 208.25C257.367 211.208 256.086 213.792 254.148 216C252.232 218.187 249.753 219.896 246.711 221.125C243.69 222.333 240.201 222.938 236.242 222.938Z" fill="black"/>
</svg>
