<svg width="1em" height="1em" viewBox="0 0 24 24" fill="none" xmlns="http://www.w3.org/2000/svg">
<path d="M6 4L9.87868 7.87868C11.0503 9.05025 12.9497 9.05025 14.1213 7.87868L18 4M6 13H10M6 16H10M6.2 20H17.8C18.9201 20 19.4802 20 19.908 19.782C20.2843 19.5903 20.5903 19.2843 20.782 18.908C21 18.4802 21 17.9201 21 16.8V12.2C21 11.0799 21 10.5198 20.782 10.092C20.5903 9.71569 20.2843 9.40973 19.908 9.21799C19.4802 9 18.9201 9 17.8 9H6.2C5.0799 9 4.51984 9 4.09202 9.21799C3.71569 9.40973 3.40973 9.71569 3.21799 10.092C3 10.5198 3 11.0799 3 12.2V16.8C3 17.9201 3 18.4802 3.21799 18.908C3.40973 19.2843 3.71569 19.5903 4.09202 19.782C4.51984 20 5.07989 20 6.2 20ZM18 14.5C18 15.8807 16.8807 17 15.5 17C14.1193 17 13 15.8807 13 14.5C13 13.1193 14.1193 12 15.5 12C16.8807 12 18 13.1193 18 14.5Z" stroke="#111111" stroke-width="2" stroke-linecap="round"/>
</svg>
