<svg width="118" height="153" viewBox="0 0 118 153" fill="none" xmlns="http://www.w3.org/2000/svg">
<path d="M38.625 42C38.4583 39.9167 37.6771 38.2917 36.2813 37.125C34.9063 35.9583 32.8125 35.375 30 35.375C28.2083 35.375 26.7396 35.5937 25.5937 36.0312C24.4688 36.4479 23.6354 37.0208 23.0938 37.75C22.5521 38.4792 22.2708 39.3125 22.25 40.25C22.2083 41.0208 22.3438 41.7187 22.6563 42.3438C22.9896 42.9479 23.5104 43.5 24.2187 44C24.9271 44.4792 25.8333 44.9167 26.9375 45.3125C28.0417 45.7083 29.3542 46.0625 30.875 46.375L36.125 47.5C39.6667 48.25 42.6979 49.2396 45.2188 50.4687C47.7396 51.6979 49.8021 53.1458 51.4063 54.8125C53.0104 56.4583 54.1875 58.3125 54.9375 60.375C55.7083 62.4375 56.1042 64.6875 56.125 67.125C56.1042 71.3333 55.0521 74.8958 52.9688 77.8125C50.8854 80.7292 47.9063 82.9479 44.0313 84.4687C40.1771 85.9896 35.5417 86.75 30.125 86.75C24.5625 86.75 19.7083 85.9271 15.5625 84.2812C11.4375 82.6354 8.22917 80.1042 5.9375 76.6875C3.66667 73.25 2.52083 68.8542 2.5 63.5H19C19.1042 65.4583 19.5938 67.1042 20.4688 68.4375C21.3438 69.7708 22.5729 70.7812 24.1563 71.4687C25.7604 72.1562 27.6667 72.5 29.875 72.5C31.7292 72.5 33.2813 72.2708 34.5313 71.8125C35.7813 71.3542 36.7292 70.7187 37.375 69.9062C38.0208 69.0937 38.3542 68.1667 38.375 67.125C38.3542 66.1458 38.0313 65.2917 37.4063 64.5625C36.8021 63.8125 35.8021 63.1458 34.4063 62.5625C33.0104 61.9583 31.125 61.3958 28.75 60.875L22.375 59.5C16.7083 58.2708 12.2396 56.2187 8.96875 53.3438C5.71875 50.4479 4.10417 46.5 4.125 41.5C4.10417 37.4375 5.1875 33.8854 7.375 30.8438C9.58333 27.7812 12.6354 25.3958 16.5313 23.6875C20.4479 21.9792 24.9375 21.125 30 21.125C35.1667 21.125 39.6354 21.9896 43.4063 23.7187C47.1771 25.4479 50.0833 27.8854 52.125 31.0313C54.1875 34.1562 55.2292 37.8125 55.25 42H38.625ZM62.7344 86V22H90.4844C95.3594 22 99.4531 22.6562 102.766 23.9688C106.099 25.2812 108.609 27.1354 110.297 29.5312C112.005 31.9271 112.859 34.75 112.859 38C112.859 40.3542 112.339 42.5 111.297 44.4375C110.276 46.375 108.839 48 106.984 49.3125C105.13 50.6042 102.964 51.5 100.484 52V52.625C103.234 52.7292 105.734 53.4271 107.984 54.7188C110.234 55.9896 112.026 57.75 113.359 60C114.693 62.2292 115.359 64.8542 115.359 67.875C115.359 71.375 114.443 74.4896 112.609 77.2187C110.797 79.9479 108.214 82.0937 104.859 83.6562C101.505 85.2187 97.5052 86 92.8594 86H62.7344ZM80.1094 72.125H88.2344C91.151 72.125 93.3385 71.5833 94.7969 70.5C96.2552 69.3958 96.9844 67.7708 96.9844 65.625C96.9844 64.125 96.6406 62.8542 95.9531 61.8125C95.2656 60.7708 94.2865 59.9792 93.0156 59.4375C91.7656 58.8958 90.2552 58.625 88.4844 58.625H80.1094V72.125ZM80.1094 47.875H87.2344C88.7552 47.875 90.099 47.6354 91.2656 47.1562C92.4323 46.6771 93.3385 45.9896 93.9844 45.0938C94.651 44.1771 94.9844 43.0625 94.9844 41.75C94.9844 39.7708 94.276 38.2604 92.8594 37.2188C91.4427 36.1562 89.651 35.625 87.4844 35.625H80.1094V47.875Z" fill="black"/>
<path d="M17.8125 94.3636H32.5568L42.6989 119.08H43.2102L53.3523 94.3636H68.0966V138H56.5057V112.773H56.1648L46.4489 137.659H39.4602L29.7443 112.602H29.4034V138H17.8125V94.3636ZM114.45 110.727H102.433C102.347 109.733 102.12 108.831 101.751 108.021C101.396 107.212 100.898 106.516 100.259 105.933C99.6342 105.337 98.8743 104.882 97.9794 104.57C97.0845 104.243 96.0689 104.08 94.9325 104.08C92.9439 104.08 91.2607 104.562 89.8828 105.528C88.5192 106.494 87.4822 107.879 86.772 109.683C86.076 111.487 85.728 113.653 85.728 116.182C85.728 118.852 86.0831 121.089 86.7933 122.893C87.5178 124.683 88.5618 126.033 89.9254 126.942C91.2891 127.837 92.9297 128.284 94.8473 128.284C95.9411 128.284 96.9212 128.149 97.7876 127.879C98.6541 127.595 99.407 127.19 100.046 126.665C100.685 126.139 101.204 125.507 101.602 124.768C102.013 124.016 102.29 123.17 102.433 122.233L114.45 122.318C114.308 124.165 113.789 126.047 112.894 127.964C111.999 129.868 110.728 131.629 109.08 133.249C107.447 134.854 105.423 136.146 103.008 137.126C100.593 138.107 97.7876 138.597 94.5916 138.597C90.5859 138.597 86.9922 137.737 83.8104 136.018C80.6428 134.3 78.1357 131.771 76.2891 128.433C74.4567 125.095 73.5405 121.011 73.5405 116.182C73.5405 111.324 74.478 107.233 76.353 103.909C78.228 100.571 80.7564 98.0497 83.9382 96.3452C87.12 94.6264 90.6712 93.767 94.5916 93.767C97.3473 93.767 99.8828 94.1435 102.198 94.8963C104.513 95.6491 106.545 96.75 108.292 98.1989C110.039 99.6335 111.445 101.402 112.511 103.504C113.576 105.607 114.222 108.014 114.45 110.727Z" fill="black"/>
</svg>
