<svg width="180" height="180" viewBox="0 0 180 180" fill="none" xmlns="http://www.w3.org/2000/svg">
<circle cx="90" cy="90" r="90" fill="white"/>
<path d="M16.18 74.596V77.584C16.18 82.156 13.84 86.656 8.152 88.492L10.636 92.344C17.188 90.148 20.176 84.28 20.176 77.584V74.596H16.18ZM17.188 74.596V77.368C17.188 83.848 19.852 89.212 26.008 91.336L28.492 87.592C23.2 85.9 21.04 81.796 21.04 77.368V74.596H17.188ZM31.552 72.868V92.38H36.34V72.868H31.552ZM25.036 93.244C17.98 93.244 13.624 95.656 13.624 99.724C13.624 103.828 17.98 106.204 25.036 106.204C32.092 106.204 36.448 103.828 36.448 99.724C36.448 95.656 32.092 93.244 25.036 93.244ZM25.036 96.952C29.392 96.952 31.696 97.852 31.696 99.724C31.696 101.596 29.392 102.532 25.036 102.532C20.716 102.532 18.412 101.596 18.412 99.724C18.412 97.852 20.716 96.952 25.036 96.952ZM25.468 78.916V82.804H32.236V78.916H25.468ZM64.6692 72.904V98.284H69.4572V72.904H64.6692ZM60.3132 81.148V84.964H66.4692V81.148H60.3132ZM60.3132 88.312V92.092H66.4692V88.312H60.3132ZM41.6652 76.36V80.104H59.9532V76.36H41.6652ZM51.0252 81.292C46.4892 81.292 43.2132 83.992 43.2132 87.844C43.2132 91.696 46.4892 94.396 51.0252 94.396C55.5612 94.396 58.8372 91.696 58.8372 87.844C58.8372 83.992 55.5612 81.292 51.0252 81.292ZM51.0252 84.964C52.9692 84.964 54.3372 86.008 54.3372 87.844C54.3372 89.716 52.9692 90.724 51.0252 90.724C49.0812 90.724 47.7132 89.716 47.7132 87.844C47.7132 86.008 49.0812 84.964 51.0252 84.964ZM48.6492 72.796V78.664H53.4372V72.796H48.6492ZM47.3892 101.812V105.628H70.1772V101.812H47.3892ZM47.3892 96.196V103.576H52.2132V96.196H47.3892ZM74.6744 92.632V96.52H104.842V92.632H74.6744ZM87.3464 94V106.24H92.0984V94H87.3464ZM78.4184 86.44V90.22H101.71V86.44H78.4184ZM78.4184 74.2V87.34H83.1344V77.944H101.35V74.2H78.4184ZM81.8024 80.356V83.992H100.63V80.356H81.8024ZM131.876 72.868V106.204H136.448V72.868H131.876ZM119.204 85.036V88.888H126.944V85.036H119.204ZM125 73.444V104.728H129.464V73.444H125ZM108.764 94.864V98.824H111.068C115.928 98.824 119.24 98.68 122.948 97.924L122.588 94.036C118.916 94.756 115.784 94.864 111.068 94.864H108.764ZM108.764 76.612V96.52H113.48V80.428H121.472V76.612H108.764ZM163.769 72.832V106.276H168.593V72.832H163.769ZM150.629 75.172C145.589 75.172 141.881 79.78 141.881 87.052C141.881 94.396 145.589 99.004 150.629 99.004C155.669 99.004 159.377 94.396 159.377 87.052C159.377 79.78 155.669 75.172 150.629 75.172ZM150.629 79.528C153.113 79.528 154.769 82.156 154.769 87.052C154.769 92.02 153.113 94.684 150.629 94.684C148.145 94.684 146.453 92.02 146.453 87.052C146.453 82.156 148.145 79.528 150.629 79.528Z" fill="#1B1A58"/>
</svg>
