<svg width="320" height="82" viewBox="0 0 320 82" fill="none" xmlns="http://www.w3.org/2000/svg">
<path d="M60.6 0.343999V81.832H72.392V0.343999H60.6ZM50.216 27.712V37.744H66.056V27.712H50.216ZM12.376 6.76799V20.496C12.376 33.432 10.968 47.512 0.584 55.696L8.24 63.792C18.888 54.992 20.824 37.48 20.824 20.496V6.76799H12.376ZM15.104 6.76799V20.496C15.104 36.688 16.864 55.872 28.832 64.936L35.168 56.312C24.608 47.688 23.288 32.904 23.288 20.496V6.76799H15.104ZM34.288 6.76799V20.496C34.288 33.08 33.056 47.776 22.496 56.312L28.832 64.936C40.712 55.96 42.56 36.864 42.56 20.496V6.76799H34.288ZM37.016 6.76799V20.496C37.016 37.48 38.776 55.344 50.04 64.232L57.168 55.696C46.784 47.6 45.464 33.52 45.464 20.496V6.76799H37.016ZM139.881 0.343999V81.832H151.585V0.343999H139.881ZM87.7851 8.088V58.688H99.4011V8.088H87.7851ZM87.7851 51.824V61.768H95.0011C107.409 61.768 120.873 60.888 134.865 57.984L133.545 48.304C120.081 50.944 106.881 51.824 95.0011 51.824H87.7851ZM173.314 25.952V35.28H229.986V25.952H173.314ZM173.314 4.04V30.176H185.018V4.04H173.314ZM164.514 44.256V53.672H238.17V44.256H164.514ZM181.234 47.6V81.832H192.938V47.6H181.234ZM209.658 47.6V81.832H221.362V47.6H209.658ZM275.651 5.008V10.904C275.651 22.608 265.531 35.544 247.139 38.712L252.155 48.392C273.275 44.256 285.859 28.592 285.859 10.904V5.008H275.651ZM278.027 5.008V10.904C278.027 28.856 290.523 44.256 311.643 48.392L316.659 38.712C298.179 35.544 288.147 22.872 288.147 10.904V5.008H278.027ZM245.467 62.384V71.888H319.211V62.384H245.467Z" fill="#ECE537"/>
<path d="M60.6 0.343999V-0.656001H59.6V0.343999H60.6ZM60.6 81.832H59.6V82.832H60.6V81.832ZM72.392 81.832V82.832H73.392V81.832H72.392ZM72.392 0.343999H73.392V-0.656001H72.392V0.343999ZM50.216 27.712V26.712H49.216V27.712H50.216ZM50.216 37.744H49.216V38.744H50.216V37.744ZM66.056 37.744V38.744H67.056V37.744H66.056ZM66.056 27.712H67.056V26.712H66.056V27.712ZM12.376 6.76799V5.76799H11.376V6.76799H12.376ZM0.584 55.696L-0.0349966 54.9106L-0.894465 55.588L-0.142575 56.3831L0.584 55.696ZM8.24 63.792L7.51343 64.4791L8.15607 65.1587L8.87705 64.5628L8.24 63.792ZM20.824 6.76799H21.824V5.76799H20.824V6.76799ZM15.104 6.76799V5.76799H14.104V6.76799H15.104ZM28.832 64.936L28.2283 65.7332L29.0371 66.3458L29.6379 65.5281L28.832 64.936ZM35.168 56.312L35.9739 56.9041L36.5364 56.1384L35.8005 55.5375L35.168 56.312ZM23.288 6.76799H24.288V5.76799H23.288V6.76799ZM34.288 6.76799V5.76799H33.288V6.76799H34.288ZM22.496 56.312L21.8674 55.5343L21.1248 56.1346L21.6901 56.9041L22.496 56.312ZM28.832 64.936L28.0261 65.5281L28.6262 66.3448L29.4348 65.7339L28.832 64.936ZM42.56 6.76799H43.56V5.76799H42.56V6.76799ZM37.016 6.76799V5.76799H36.016V6.76799H37.016ZM50.04 64.232L49.4206 65.017L50.1841 65.6195L50.8076 64.873L50.04 64.232ZM57.168 55.696L57.9356 56.337L58.5984 55.5432L57.7829 54.9074L57.168 55.696ZM45.464 6.76799H46.464V5.76799H45.464V6.76799ZM59.6 0.343999V81.832H61.6V0.343999H59.6ZM60.6 82.832H72.392V80.832H60.6V82.832ZM73.392 81.832V0.343999H71.392V81.832H73.392ZM72.392 -0.656001H60.6V1.344H72.392V-0.656001ZM49.216 27.712V37.744H51.216V27.712H49.216ZM50.216 38.744H66.056V36.744H50.216V38.744ZM67.056 37.744V27.712H65.056V37.744H67.056ZM66.056 26.712H50.216V28.712H66.056V26.712ZM11.376 6.76799V20.496H13.376V6.76799H11.376ZM11.376 20.496C11.376 33.4604 9.9318 47.0554 -0.0349966 54.9106L1.203 56.4814C12.0042 47.9686 13.376 33.4036 13.376 20.496H11.376ZM-0.142575 56.3831L7.51343 64.4791L8.96658 63.1049L1.31058 55.0089L-0.142575 56.3831ZM8.87705 64.5628C14.4336 59.9706 17.6562 53.1569 19.4977 45.4453C21.3399 37.7303 21.824 29.0141 21.824 20.496H19.824C19.824 28.9619 19.3401 37.4937 17.5523 44.9807C15.7638 52.4711 12.6944 58.8134 7.60295 63.0212L8.87705 64.5628ZM21.824 20.496V6.76799H19.824V20.496H21.824ZM20.824 5.76799H12.376V7.76799H20.824V5.76799ZM14.104 6.76799V20.496H16.104V6.76799H14.104ZM14.104 20.496C14.104 28.6159 14.5438 37.5551 16.5084 45.6255C18.4717 53.6907 21.9864 61.0059 28.2283 65.7332L29.4357 64.1388C23.7096 59.8021 20.3603 52.9933 18.4516 45.1525C16.5442 37.3169 16.104 28.5681 16.104 20.496H14.104ZM29.6379 65.5281L35.9739 56.9041L34.3621 55.7199L28.0261 64.3439L29.6379 65.5281ZM35.8005 55.5375C25.6441 47.2431 24.288 32.934 24.288 20.496H22.288C22.288 32.874 23.5719 48.1329 34.5355 57.0865L35.8005 55.5375ZM24.288 20.496V6.76799H22.288V20.496H24.288ZM23.288 5.76799H15.104V7.76799H23.288V5.76799ZM33.288 6.76799V20.496H35.288V6.76799H33.288ZM33.288 20.496C33.288 33.1192 32.0167 47.3303 21.8674 55.5343L23.1246 57.0897C34.0953 48.2217 35.288 33.0408 35.288 20.496H33.288ZM21.6901 56.9041L28.0261 65.5281L29.6379 64.3439L23.3019 55.7199L21.6901 56.9041ZM29.4348 65.7339C35.6328 61.051 39.1478 53.78 41.1222 45.7261C43.0981 37.6666 43.56 28.7054 43.56 20.496H41.56C41.56 28.6546 41.098 37.4254 39.1798 45.2499C37.2602 53.08 33.9112 59.845 28.2292 64.1381L29.4348 65.7339ZM43.56 20.496V6.76799H41.56V20.496H43.56ZM42.56 5.76799H34.288V7.76799H42.56V5.76799ZM36.016 6.76799V20.496H38.016V6.76799H36.016ZM36.016 20.496C36.016 29.0095 36.4555 37.8164 38.3316 45.6334C40.2076 53.4499 43.5448 60.3807 49.4206 65.017L50.6594 63.447C45.2712 59.1953 42.0964 52.7501 40.2764 45.1666C38.4565 37.5836 38.016 28.9665 38.016 20.496H36.016ZM50.8076 64.873L57.9356 56.337L56.4004 55.055L49.2724 63.591L50.8076 64.873ZM57.7829 54.9074C47.8239 47.1427 46.464 33.5588 46.464 20.496H44.464C44.464 33.4812 45.7441 48.0573 56.5531 56.4846L57.7829 54.9074ZM46.464 20.496V6.76799H44.464V20.496H46.464ZM45.464 5.76799H37.016V7.76799H45.464V5.76799ZM139.881 0.343999V-0.656001H138.881V0.343999H139.881ZM139.881 81.832H138.881V82.832H139.881V81.832ZM151.585 81.832V82.832H152.585V81.832H151.585ZM151.585 0.343999H152.585V-0.656001H151.585V0.343999ZM87.7851 8.088V7.088H86.7851V8.088H87.7851ZM87.7851 58.688H86.7851V59.688H87.7851V58.688ZM99.4011 58.688V59.688H100.401V58.688H99.4011ZM99.4011 8.088H100.401V7.088H99.4011V8.088ZM87.7851 51.824V50.824H86.7851V51.824H87.7851ZM87.7851 61.768H86.7851V62.768H87.7851V61.768ZM134.865 57.984L135.068 58.9631L135.982 58.7735L135.856 57.8489L134.865 57.984ZM133.545 48.304L134.536 48.1689L134.393 47.1188L133.353 47.3227L133.545 48.304ZM138.881 0.343999V81.832H140.881V0.343999H138.881ZM139.881 82.832H151.585V80.832H139.881V82.832ZM152.585 81.832V0.343999H150.585V81.832H152.585ZM151.585 -0.656001H139.881V1.344H151.585V-0.656001ZM86.7851 8.088V58.688H88.7851V8.088H86.7851ZM87.7851 59.688H99.4011V57.688H87.7851V59.688ZM100.401 58.688V8.088H98.4011V58.688H100.401ZM99.4011 7.088H87.7851V9.088H99.4011V7.088ZM86.7851 51.824V61.768H88.7851V51.824H86.7851ZM87.7851 62.768H95.0011V60.768H87.7851V62.768ZM95.0011 62.768C107.456 62.768 120.991 61.8848 135.068 58.9631L134.662 57.0049C120.755 59.8912 107.363 60.768 95.0011 60.768V62.768ZM135.856 57.8489L134.536 48.1689L132.554 48.4391L133.874 58.1191L135.856 57.8489ZM133.353 47.3227C119.967 49.9474 106.834 50.824 95.0011 50.824V52.824C106.929 52.824 120.195 51.9406 133.738 49.2853L133.353 47.3227ZM95.0011 50.824H87.7851V52.824H95.0011V50.824ZM173.314 25.952V24.952H172.314V25.952H173.314ZM173.314 35.28H172.314V36.28H173.314V35.28ZM229.986 35.28V36.28H230.986V35.28H229.986ZM229.986 25.952H230.986V24.952H229.986V25.952ZM173.314 4.04V3.04H172.314V4.04H173.314ZM173.314 30.176H172.314V31.176H173.314V30.176ZM185.018 30.176V31.176H186.018V30.176H185.018ZM185.018 4.04H186.018V3.04H185.018V4.04ZM164.514 44.256V43.256H163.514V44.256H164.514ZM164.514 53.672H163.514V54.672H164.514V53.672ZM238.17 53.672V54.672H239.17V53.672H238.17ZM238.17 44.256H239.17V43.256H238.17V44.256ZM181.234 47.6V46.6H180.234V47.6H181.234ZM181.234 81.832H180.234V82.832H181.234V81.832ZM192.938 81.832V82.832H193.938V81.832H192.938ZM192.938 47.6H193.938V46.6H192.938V47.6ZM209.658 47.6V46.6H208.658V47.6H209.658ZM209.658 81.832H208.658V82.832H209.658V81.832ZM221.362 81.832V82.832H222.362V81.832H221.362ZM221.362 47.6H222.362V46.6H221.362V47.6ZM172.314 25.952V35.28H174.314V25.952H172.314ZM173.314 36.28H229.986V34.28H173.314V36.28ZM230.986 35.28V25.952H228.986V35.28H230.986ZM229.986 24.952H173.314V26.952H229.986V24.952ZM172.314 4.04V30.176H174.314V4.04H172.314ZM173.314 31.176H185.018V29.176H173.314V31.176ZM186.018 30.176V4.04H184.018V30.176H186.018ZM185.018 3.04H173.314V5.04H185.018V3.04ZM163.514 44.256V53.672H165.514V44.256H163.514ZM164.514 54.672H238.17V52.672H164.514V54.672ZM239.17 53.672V44.256H237.17V53.672H239.17ZM238.17 43.256H164.514V45.256H238.17V43.256ZM180.234 47.6V81.832H182.234V47.6H180.234ZM181.234 82.832H192.938V80.832H181.234V82.832ZM193.938 81.832V47.6H191.938V81.832H193.938ZM192.938 46.6H181.234V48.6H192.938V46.6ZM208.658 47.6V81.832H210.658V47.6H208.658ZM209.658 82.832H221.362V80.832H209.658V82.832ZM222.362 81.832V47.6H220.362V81.832H222.362ZM221.362 46.6H209.658V48.6H221.362V46.6ZM275.651 5.008V4.008H274.651V5.008H275.651ZM247.139 38.712L246.97 37.7265L245.623 37.9585L246.251 39.1721L247.139 38.712ZM252.155 48.392L251.267 48.8521L251.612 49.5174L252.348 49.3734L252.155 48.392ZM285.859 5.008H286.859V4.008H285.859V5.008ZM278.027 5.008V4.008H277.027V5.008H278.027ZM311.643 48.392L311.451 49.3734L312.187 49.5174L312.531 48.8521L311.643 48.392ZM316.659 38.712L317.547 39.1721L318.177 37.9575L316.828 37.7264L316.659 38.712ZM288.147 5.008H289.147V4.008H288.147V5.008ZM245.467 62.384V61.384H244.467V62.384H245.467ZM245.467 71.888H244.467V72.888H245.467V71.888ZM319.211 71.888V72.888H320.211V71.888H319.211ZM319.211 62.384H320.211V61.384H319.211V62.384ZM274.651 5.008V10.904H276.651V5.008H274.651ZM274.651 10.904C274.651 22.0225 264.986 34.6232 246.97 37.7265L247.309 39.6975C266.077 36.4648 276.651 23.1935 276.651 10.904H274.651ZM246.251 39.1721L251.267 48.8521L253.043 47.9319L248.027 38.2519L246.251 39.1721ZM252.348 49.3734C273.889 45.1548 286.859 29.1173 286.859 10.904H284.859C284.859 28.0667 272.662 43.3572 251.963 47.4106L252.348 49.3734ZM286.859 10.904V5.008H284.859V10.904H286.859ZM285.859 4.008H275.651V6.008H285.859V4.008ZM277.027 5.008V10.904H279.027V5.008H277.027ZM277.027 10.904C277.027 29.3823 289.911 45.155 311.451 49.3734L311.836 47.4106C291.136 43.357 279.027 28.3297 279.027 10.904H277.027ZM312.531 48.8521L317.547 39.1721L315.772 38.2519L310.756 47.9319L312.531 48.8521ZM316.828 37.7264C298.721 34.6223 289.147 22.2834 289.147 10.904H287.147C287.147 23.4606 297.638 36.4657 316.49 39.6976L316.828 37.7264ZM289.147 10.904V5.008H287.147V10.904H289.147ZM288.147 4.008H278.027V6.008H288.147V4.008ZM244.467 62.384V71.888H246.467V62.384H244.467ZM245.467 72.888H319.211V70.888H245.467V72.888ZM320.211 71.888V62.384H318.211V71.888H320.211ZM319.211 61.384H245.467V63.384H319.211V61.384Z" fill="black"/>
</svg>
