<svg width="1em" height="1em" viewBox="0 0 40 40" fill="none" xmlns="http://www.w3.org/2000/svg">
<path d="M26.6671 27.5H32.5004C34.3414 27.5 35.9151 25.9186 35.0474 24.2949C33.6207 21.6254 30.4052 20 26.6671 20C24.8378 20 23.1389 20.3708 21.714 21.0607M4.95347 28.4616C6.38011 25.792 9.59563 24.1666 13.3338 24.1666C17.0719 24.1666 20.2874 25.792 21.714 28.4616C22.5817 30.0853 21.008 31.6666 19.1671 31.6666H7.50042C5.65947 31.6666 4.08578 30.0853 4.95347 28.4616ZM17.5004 15C17.5004 17.3011 15.6349 19.1666 13.3338 19.1666C11.0326 19.1666 9.16709 17.3011 9.16709 15C9.16709 12.6988 11.0326 10.8333 13.3338 10.8333C15.6349 10.8333 17.5004 12.6988 17.5004 15ZM30.8338 10.8333C30.8338 13.1345 28.9683 15 26.6671 15C24.3659 15 22.5004 13.1345 22.5004 10.8333C22.5004 8.53211 24.3659 6.66663 26.6671 6.66663C28.9683 6.66663 30.8338 8.53211 30.8338 10.8333Z" stroke="black" stroke-width="2" stroke-linecap="round" stroke-linejoin="round"/>
</svg>
