<svg width="262" height="162" viewBox="0 0 262 162" fill="none" xmlns="http://www.w3.org/2000/svg">
<path d="M126.08 47.56V158.68H141.32V47.56H126.08ZM112.76 90.16V103.12H131.12V90.16H112.76ZM102.68 49.48V153.4H117.56V49.48H102.68ZM46.64 60.04V72.76H97.4V60.04H46.64ZM46.4 133.48C59.96 133.48 82.28 133.12 99.32 129.4L98.24 117.88C81.68 120.16 58.52 120.52 44.72 120.52L46.4 133.48ZM53.6 68.2V123.88H67.88V68.2H53.6ZM76.16 68.2V123.88H90.44V68.2H76.16ZM232.511 47.56V158.68H248.591V47.56H232.511ZM183.551 76.36V82.12C183.551 98.92 174.911 117.76 156.671 125.92L165.191 138.16C185.711 129.28 196.151 105.64 196.151 82.12V76.36H183.551ZM187.031 76.36V82.12C187.031 104.92 197.591 127.84 218.111 136.36L226.631 124.12C208.271 116.32 199.511 98.08 199.511 82.12V76.36H187.031ZM160.391 65.68V78.28H222.191V65.68H160.391ZM183.551 50.08V72.16H199.511V50.08H183.551Z" fill="#898A8C"/>
<path d="M62.392 12.344V93.832H73.568V12.344H62.392ZM31.416 42.088V51.504H50.336V42.088H31.416ZM45.584 13.752V90.224H56.496V13.752H45.584ZM5.896 66.112V75.792H11.528C23.408 75.792 31.504 75.44 40.568 73.592L39.688 64.088C30.712 65.848 23.056 66.112 11.528 66.112H5.896ZM5.896 21.496V70.16H17.424V30.824H36.96V21.496H5.896ZM107.441 14.72C95.0331 14.72 85.7051 22.464 85.7051 33.376C85.7051 44.2 95.0331 51.944 107.441 51.944C119.849 51.944 129.177 44.2 129.177 33.376C129.177 22.464 119.849 14.72 107.441 14.72ZM107.441 24.224C113.425 24.224 117.825 27.568 117.825 33.376C117.825 39.184 113.425 42.528 107.441 42.528C101.457 42.528 96.9691 39.184 96.9691 33.376C96.9691 27.568 101.457 24.224 107.441 24.224ZM140.441 12.344V53.088H152.233V12.344H140.441ZM97.8491 56.432V65.496H140.617V70.336H98.0251V88.64H109.465V78.784H152.233V56.432H97.8491ZM98.0251 83.888V92.952H154.257V83.888H98.0251ZM221.57 12.256V94.008H233.274V12.256H221.57ZM169.826 65.496V75H177.042C191.914 75 203.882 74.56 217.082 72.184L215.938 62.768C203.002 64.968 191.474 65.496 177.042 65.496H169.826ZM169.738 19.208V28.536H196.226V41.472H169.826V69.016H181.706V50.712H208.194V19.208H169.738Z" fill="#14208D"/>
</svg>
