<svg width="177" height="35" viewBox="0 0 177 35" fill="none" xmlns="http://www.w3.org/2000/svg">
<path d="M13.688 8.212V12.064H19.232V8.212H13.688ZM13.688 18.508V22.396H19.232V18.508H13.688ZM24.524 0.868V34.204H29.096V0.868H24.524ZM17.864 1.372V32.692H22.328V1.372H17.864ZM7.928 3.208C3.536 3.208 0.728 7.78 0.728 15.304C0.728 22.864 3.536 27.436 7.928 27.436C12.356 27.436 15.2 22.864 15.2 15.304C15.2 7.78 12.356 3.208 7.928 3.208ZM7.928 7.708C9.8 7.708 10.88 10.228 10.88 15.304C10.88 20.416 9.8 22.9 7.928 22.9C6.092 22.9 5.012 20.416 5.012 15.304C5.012 10.228 6.092 7.708 7.928 7.708ZM56.4532 0.903999V24.844H61.2772V0.903999H56.4532ZM39.0652 29.812V33.628H62.1052V29.812H39.0652ZM39.0652 22.432V31.36H43.8532V22.432H39.0652ZM43.1332 2.992C38.0212 2.992 34.0612 6.52 34.0612 11.452C34.0612 16.348 38.0212 19.912 43.1332 19.912C48.2452 19.912 52.1692 16.348 52.1692 11.452C52.1692 6.52 48.2452 2.992 43.1332 2.992ZM43.1332 7.132C45.5812 7.132 47.4892 8.716 47.4892 11.452C47.4892 14.152 45.5812 15.736 43.1332 15.736C40.6492 15.736 38.7412 14.152 38.7412 11.452C38.7412 8.716 40.6492 7.132 43.1332 7.132ZM70.3104 11.344V15.16H93.4944V11.344H70.3104ZM70.3104 2.38V13.072H75.0984V2.38H70.3104ZM66.7104 18.832V22.684H96.8424V18.832H66.7104ZM73.5504 20.2V34.204H78.3384V20.2H73.5504ZM85.1784 20.2V34.204H89.9664V20.2H85.1784ZM112.176 2.776V5.188C112.176 9.976 108.036 15.268 100.512 16.564L102.564 20.524C111.204 18.832 116.352 12.424 116.352 5.188V2.776H112.176ZM113.148 2.776V5.188C113.148 12.532 118.26 18.832 126.9 20.524L128.952 16.564C121.392 15.268 117.288 10.084 117.288 5.188V2.776H113.148ZM99.8276 26.248V30.136H129.996V26.248H99.8276ZM133.591 31V27.0114L142.911 18.3821C143.703 17.6151 144.368 16.9247 144.905 16.3111C145.45 15.6974 145.864 15.0966 146.145 14.5085C146.426 13.9119 146.567 13.2685 146.567 12.5781C146.567 11.8111 146.392 11.1506 146.043 10.5966C145.693 10.0341 145.216 9.60369 144.611 9.3054C144.006 8.99858 143.32 8.84517 142.553 8.84517C141.751 8.84517 141.053 9.0071 140.456 9.33097C139.859 9.65483 139.399 10.1193 139.075 10.7244C138.751 11.3295 138.589 12.0497 138.589 12.8849H133.335C133.335 11.1719 133.723 9.68466 134.499 8.4233C135.274 7.16193 136.361 6.18608 137.759 5.49574C139.156 4.8054 140.767 4.46023 142.591 4.46023C144.466 4.46023 146.098 4.79261 147.487 5.45739C148.885 6.11364 149.972 7.02557 150.747 8.19318C151.523 9.36079 151.911 10.6989 151.911 12.2074C151.911 13.196 151.714 14.1719 151.322 15.1349C150.939 16.098 150.253 17.1676 149.264 18.3438C148.276 19.5114 146.882 20.9134 145.084 22.5497L141.261 26.2955V26.4744H152.256V31H133.591ZM155.308 26.3977V22.0384L166.238 4.81818H169.997V10.8523H167.772L160.882 21.7571V21.9616H176.414V26.3977H155.308ZM167.875 31V25.0682L167.977 23.1378V4.81818H173.167V31H167.875Z" fill="black"/>
</svg>
