<svg width="317" height="82" viewBox="0 0 317 82" fill="none" xmlns="http://www.w3.org/2000/svg">
<path d="M55.488 0.431998V58.952H67.28V0.431998H55.488ZM12.984 71.096V80.424H69.304V71.096H12.984ZM12.984 53.056V74.88H24.688V53.056H12.984ZM22.928 5.536C10.432 5.536 0.752 14.16 0.752 26.216C0.752 38.184 10.432 46.896 22.928 46.896C35.424 46.896 45.016 38.184 45.016 26.216C45.016 14.16 35.424 5.536 22.928 5.536ZM22.928 15.656C28.912 15.656 33.576 19.528 33.576 26.216C33.576 32.816 28.912 36.688 22.928 36.688C16.856 36.688 12.192 32.816 12.192 26.216C12.192 19.528 16.856 15.656 22.928 15.656ZM98.7771 13.544V16.448C98.7771 24.28 92.9691 31.936 79.7691 34.928L84.7851 43.904C100.625 40.296 108.193 29.296 108.193 16.448V13.544H98.7771ZM101.065 13.544V16.448C101.065 28.68 108.809 39.152 124.561 42.496L129.489 33.608C116.465 30.968 110.481 23.664 110.481 16.448V13.544H101.065ZM82.7611 7.032V16.272H126.497V7.032H82.7611ZM98.7771 0.0799971V12.224H110.481V0.0799971H98.7771ZM124.473 19.264V28.592H144.625V19.264H124.473ZM136.969 0.343999V42.496H148.673V0.343999H136.969ZM94.8171 45.576V54.464H137.057V59.128H94.9051V77.608H106.521V67.488H148.673V45.576H94.8171ZM94.9051 72.416V81.304H150.961V72.416H94.9051ZM184.394 2.71999C171.986 2.71999 162.658 10.464 162.658 21.376C162.658 32.2 171.986 39.944 184.394 39.944C196.802 39.944 206.13 32.2 206.13 21.376C206.13 10.464 196.802 2.71999 184.394 2.71999ZM184.394 12.224C190.378 12.224 194.778 15.568 194.778 21.376C194.778 27.184 190.378 30.528 184.394 30.528C178.41 30.528 173.922 27.184 173.922 21.376C173.922 15.568 178.41 12.224 184.394 12.224ZM217.394 0.343999V41.088H229.186V0.343999H217.394ZM174.802 44.432V53.496H217.57V58.336H174.978V76.64H186.418V66.784H229.186V44.432H174.802ZM174.978 71.888V80.952H231.21V71.888H174.978ZM242.467 62.912V72.416H316.211V62.912H242.467ZM273.355 45.488V65.2H285.059V45.488H273.355ZM250.211 5.536V47.952H308.203V5.536H296.587V18.032H261.827V5.536H250.211ZM261.827 27.184H296.587V38.624H261.827V27.184Z" fill="black"/>
</svg>
